<svg width="48" height="48" viewBox="0 0 48 48" fill="none" xmlns="http://www.w3.org/2000/svg">
<rect width="48" height="48" fill="#A29400"/>
<path d="M34.6641 20.0003H18.9574C18.6071 19.6106 18.1831 19.2943 17.7097 19.0697C17.2363 18.8452 16.7231 18.7167 16.1997 18.6919C15.6764 18.6671 15.1533 18.7464 14.6608 18.9252C14.1684 19.104 13.7163 19.3788 13.3307 19.7336C12.4774 20.4803 11.9974 21.5469 11.9974 22.6669V34.6669C11.6438 34.6669 11.3046 34.8074 11.0546 35.0574C10.8045 35.3075 10.6641 35.6466 10.6641 36.0003V37.3336H21.3307V36.0003C21.3307 35.6466 21.1903 35.3075 20.9402 35.0574C20.6902 34.8074 20.351 34.6669 19.9974 34.6669V25.3336H34.6641C35.3713 25.3336 36.0496 25.0526 36.5497 24.5525C37.0498 24.0524 37.3307 23.3742 37.3307 22.6669C37.3307 21.9597 37.0498 21.2814 36.5497 20.7813C36.0496 20.2812 35.3713 20.0003 34.6641 20.0003ZM15.9974 24.6669C15.467 24.6669 14.9583 24.4562 14.5832 24.0811C14.2081 23.7061 13.9974 23.1974 13.9974 22.6669C13.9974 22.1365 14.2081 21.6278 14.5832 21.2527C14.9583 20.8776 15.467 20.6669 15.9974 20.6669C16.5278 20.6669 17.0365 20.8776 17.4116 21.2527C17.7867 21.6278 17.9974 22.1365 17.9974 22.6669C17.9974 23.1974 17.7867 23.7061 17.4116 24.0811C17.0365 24.4562 16.5278 24.6669 15.9974 24.6669ZM21.9974 24.0003L19.9974 21.3336H21.9974L23.9974 24.0003H21.9974ZM27.3307 24.0003L25.3307 21.3336H27.3307L29.3307 24.0003H27.3307ZM32.6641 24.0003L30.6641 21.3336H32.6641L34.6641 24.0003H32.6641Z" fill="white"/>
</svg>
