<svg width="48" height="48" viewBox="0 0 48 48" fill="none" xmlns="http://www.w3.org/2000/svg">
<rect width="48" height="48" fill="#0267BF"/>
<path d="M23.3333 16.6667V12H12.6667C12.4899 12 12.3203 12.0702 12.1953 12.1953C12.0702 12.3203 12 12.4899 12 12.6667V23.3333H15.3333V22.6667C15.3333 22.1362 15.544 21.6275 15.9191 21.2525C16.2942 20.8774 16.8029 20.6667 17.3333 20.6667H18.6667C19.1971 20.6667 19.7058 20.8774 20.0809 21.2525C20.456 21.6275 20.6667 22.1362 20.6667 22.6667V23.3333H23.3333V19.3333H25.3333C25.5101 19.3333 25.6797 19.2631 25.8047 19.1381C25.9298 19.013 26 18.8435 26 18.6667V17.3333C26 17.1565 25.9298 16.987 25.8047 16.8619C25.6797 16.7369 25.5101 16.6667 25.3333 16.6667H23.3333Z" fill="white"/>
<path d="M12 24.6667H16.6667V22.6667C16.6667 22.4899 16.7369 22.3203 16.8619 22.1953C16.987 22.0703 17.1565 22.0001 17.3333 22.0001H18.6667C18.8435 22.0001 19.013 22.0703 19.1381 22.1953C19.2631 22.3203 19.3333 22.4899 19.3333 22.6667V24.6667H23.3333V27.3334H22.6667C22.1362 27.3334 21.6275 27.5441 21.2525 27.9192C20.8774 28.2943 20.6667 28.803 20.6667 29.3334V30.6667C20.6667 31.1972 20.8774 31.7059 21.2525 32.0809C21.6275 32.456 22.1362 32.6667 22.6667 32.6667H23.3333V36.0001H12.6667C12.4899 36.0001 12.3203 35.9298 12.1953 35.8048C12.0702 35.6798 12 35.5102 12 35.3334V24.6667Z" fill="white"/>
<path d="M24.6667 35.9993V31.3327H22.6667C22.4899 31.3327 22.3203 31.2624 22.1953 31.1374C22.0702 31.0124 22 30.8428 22 30.666V29.3327C22 29.1559 22.0702 28.9863 22.1953 28.8613C22.3203 28.7363 22.4899 28.666 22.6667 28.666H24.6667V24.666H27.3333V25.3327C27.3333 25.8631 27.544 26.3718 27.9191 26.7469C28.2942 27.122 28.8029 27.3327 29.3333 27.3327H30.6667C31.1971 27.3327 31.7058 27.122 32.0809 26.7469C32.456 26.3718 32.6667 25.8631 32.6667 25.3327V24.666H36V35.3327C36 35.5095 35.9298 35.6791 35.8047 35.8041C35.6797 35.9291 35.5101 35.9993 35.3333 35.9993H24.6667Z" fill="white"/>
<path d="M36.0013 23.3333V12.6667C36.0013 12.4899 35.9311 12.3203 35.806 12.1953C35.681 12.0702 35.5114 12 35.3346 12H24.668V15.3333H25.3346C25.8651 15.3333 26.3738 15.544 26.7488 15.9191C27.1239 16.2942 27.3346 16.8029 27.3346 17.3333V18.6667C27.3346 19.1971 27.1239 19.7058 26.7488 20.0809C26.3738 20.456 25.8651 20.6667 25.3346 20.6667H24.668V23.3333H28.668V25.3333C28.668 25.5101 28.7382 25.6797 28.8632 25.8047C28.9883 25.9298 29.1578 26 29.3346 26H30.668C30.8448 26 31.0143 25.9298 31.1394 25.8047C31.2644 25.6797 31.3346 25.5101 31.3346 25.3333V23.3333H36.0013Z" fill="white"/>
</svg>
