<svg width="32" height="32" viewBox="0 0 32 32" fill="none" xmlns="http://www.w3.org/2000/svg">
<g clip-path="url(#clip0_669_7301)">
<path d="M25.6773 19.8842C24.4784 20.6129 23.1015 20.9962 21.6985 20.9917C20.5232 20.9824 19.3611 20.742 18.2785 20.2842C17.4442 21.462 16.9976 22.8707 17.001 24.3141V28.0004C17.0013 28.1375 16.9734 28.2732 16.9191 28.399C16.8647 28.5249 16.7851 28.6382 16.6851 28.732C16.5851 28.8258 16.4669 28.898 16.3378 28.9442C16.2088 28.9903 16.0716 29.0095 15.9348 29.0004C15.6777 28.978 15.4387 28.8593 15.2655 28.6681C15.0923 28.4768 14.9978 28.2271 15.001 27.9692V26.4142L10.1735 21.5867C9.4559 21.8544 8.69694 21.9944 7.93102 22.0004C6.87659 22.0031 5.84189 21.7146 4.94102 21.1667C2.21727 19.5117 0.751023 15.7029 1.03477 10.9742C1.04906 10.7295 1.15268 10.4986 1.32597 10.3253C1.49925 10.1521 1.73013 10.0484 1.97477 10.0342C6.70352 9.7554 10.5123 11.2167 12.1623 13.9404C12.8105 15.008 13.0936 16.2577 12.9685 17.5004C12.9607 17.5967 12.9253 17.6887 12.8663 17.7652C12.8074 17.8417 12.7275 17.8996 12.6364 17.9317C12.5453 17.9638 12.4469 17.9689 12.353 17.9462C12.2591 17.9236 12.1737 17.8743 12.1073 17.8042L9.70727 15.2917C9.51821 15.112 9.26646 15.0134 9.0057 15.0167C8.74494 15.0201 8.4958 15.1251 8.31139 15.3095C8.12699 15.4939 8.02192 15.7431 8.01858 16.0038C8.01524 16.2646 8.1139 16.5163 8.29352 16.7054L15.0285 23.6117C15.036 23.5142 15.0448 23.4167 15.0548 23.3204C15.2735 21.4663 16.0916 19.7344 17.3848 18.3879L23.7085 11.7054C23.8962 11.5179 24.0016 11.2636 24.0018 10.9983C24.0019 10.7331 23.8966 10.4787 23.7091 10.291C23.5217 10.1034 23.2673 9.99791 23.0021 9.99779C22.7368 9.99767 22.4824 10.1029 22.2948 10.2904L16.1698 16.7679C16.1085 16.8328 16.0309 16.8802 15.9451 16.905C15.8593 16.9298 15.7684 16.9312 15.6819 16.909C15.5954 16.8868 15.5164 16.8418 15.4532 16.7787C15.3899 16.7157 15.3447 16.6368 15.3223 16.5504C14.7298 14.3654 14.991 12.1904 16.1223 10.3229C18.3548 6.6379 23.5498 4.6654 30.0198 5.0454C30.2644 5.05969 30.4953 5.16331 30.6686 5.33659C30.8419 5.50988 30.9455 5.74076 30.9598 5.9854C31.3348 12.4567 29.3623 17.6517 25.6773 19.8842Z" fill="white"/>
</g>
<defs>
<clipPath id="clip0_669_7301">
<rect width="32" height="32" fill="white"/>
</clipPath>
</defs>
</svg>
