<svg width="40" height="36" viewBox="0 0 40 36" fill="none" xmlns="http://www.w3.org/2000/svg">
<path d="M19.9961 8V0H-0.00390625V36H39.9961V8H19.9961ZM7.99609 32H3.99609V28H7.99609V32ZM7.99609 24H3.99609V20H7.99609V24ZM7.99609 16H3.99609V12H7.99609V16ZM7.99609 8H3.99609V4H7.99609V8ZM15.9961 32H11.9961V28H15.9961V32ZM15.9961 24H11.9961V20H15.9961V24ZM15.9961 16H11.9961V12H15.9961V16ZM15.9961 8H11.9961V4H15.9961V8ZM35.9961 32H19.9961V28H23.9961V24H19.9961V20H23.9961V16H19.9961V12H35.9961V32ZM31.9961 16H27.9961V20H31.9961V16ZM31.9961 24H27.9961V28H31.9961V24Z" fill="#0267BF"/>
</svg>
