<svg width="24" height="24" viewBox="0 0 24 24" fill="none" xmlns="http://www.w3.org/2000/svg">
<path fill-rule="evenodd" clip-rule="evenodd" d="M13.149 21.7726H4.049C3.91217 21.7738 3.77646 21.748 3.64963 21.6966C3.5228 21.6452 3.40736 21.5694 3.30991 21.4733C3.21246 21.3772 3.13492 21.2629 3.08174 21.1368C3.02856 21.0108 3.00078 20.8754 3 20.7386V4.09159C3 3.52159 3.47 3.05859 4.049 3.05859H20.95C21.531 3.05859 22 3.52059 22 4.09159V20.7386C22 21.3086 21.53 21.7716 20.951 21.7716H16.11V14.5246H18.58L18.95 11.6996H16.11V9.89859C16.11 9.08159 16.34 8.52359 17.53 8.52359H19.05V5.99659C18.3149 5.9196 17.5761 5.88221 16.837 5.88459C14.647 5.88459 13.149 7.20159 13.149 9.61859V11.7006H10.673V14.5256H13.149V21.7726Z" fill="white"/>
</svg>
