<svg width="48" height="48" viewBox="0 0 48 48" fill="none" xmlns="http://www.w3.org/2000/svg">
<path d="M2.86219 23.9436C2.73188 24.2717 2.34375 33.9467 2.34375 33.9467C8.70375 31.9592 11.2041 34.9874 14.2134 41.503L23.6353 40.153C27.0384 30.7592 29.9916 30.5624 32.7947 33.5717L34.5853 33.4311C36.0947 28.7999 39.0572 22.7624 42.5447 16.1999L45.6572 14.6624L44.3541 11.8592L40.1916 6.6383L37.1728 9.12924C31.8291 6.52767 29.3353 8.21986 27.0853 10.2842C23.3728 7.73049 20.3259 7.7033 17.7759 9.57174C16.8103 5.62767 7.48125 5.12049 7.28156 10.153C5.05875 11.3436 5.57531 13.6592 5.14031 15.5905C6.36 18.6561 5.36531 21.0561 2.86219 23.9436Z" fill="#0267BF"/>
</svg>
