<svg width="24" height="24" viewBox="0 0 24 24" fill="none" xmlns="http://www.w3.org/2000/svg">
<path fill-rule="evenodd" clip-rule="evenodd" d="M23 21.7576H18.359V14.8326C18.359 13.0196 17.633 11.7826 16.036 11.7826C14.816 11.7826 14.136 12.6176 13.82 13.4226C13.701 13.7106 13.72 14.1126 13.72 14.5156V21.7586H9.122C9.122 21.7586 9.182 9.49159 9.122 8.37659H13.72V10.4766C13.991 9.55859 15.46 8.24759 17.806 8.24759C20.715 8.24759 23 10.1726 23 14.3176V21.7576ZM4.472 6.70159H4.442C2.961 6.70159 2 5.67859 2 4.38159C2 3.06059 2.989 2.05859 4.5 2.05859C6.01 2.05859 6.939 3.05759 6.968 4.37859C6.968 5.67459 6.01 6.70159 4.472 6.70159ZM2.53 8.37559H6.623V21.7576H2.53V8.37559Z" fill="white"/>
</svg>
