<svg width="24" height="24" viewBox="0 0 24 24" fill="none" xmlns="http://www.w3.org/2000/svg">
<rect width="24" height="24" rx="12" fill="#00A758"/>
<path d="M12 6.5332C13.3924 6.5332 14.7277 7.08633 15.7123 8.07089C16.6969 9.05546 17.25 10.3908 17.25 11.7832C17.25 13.5764 16.2723 15.044 15.2422 16.097C14.7275 16.6173 14.1659 17.0891 13.5645 17.5063L13.316 17.6755L13.1993 17.753L12.9794 17.893L12.7834 18.0126L12.5408 18.1538C12.376 18.2478 12.1897 18.2973 12 18.2973C11.8103 18.2973 11.624 18.2478 11.4592 18.1538L11.2166 18.0126L10.9132 17.826L10.8012 17.753L10.5621 17.5938C9.91332 17.1548 9.30903 16.6535 8.75783 16.097C7.72767 15.0435 6.75 13.5764 6.75 11.7832C6.75 10.3908 7.30312 9.05546 8.28769 8.07089C9.27226 7.08633 10.6076 6.5332 12 6.5332ZM12 10.0332C11.7702 10.0332 11.5426 10.0785 11.3303 10.1664C11.118 10.2544 10.9251 10.3833 10.7626 10.5458C10.6001 10.7083 10.4712 10.9012 10.3832 11.1135C10.2953 11.3258 10.25 11.5534 10.25 11.7832C10.25 12.013 10.2953 12.2406 10.3832 12.4529C10.4712 12.6652 10.6001 12.8581 10.7626 13.0206C10.9251 13.1831 11.118 13.312 11.3303 13.4C11.5426 13.4879 11.7702 13.5332 12 13.5332C12.4641 13.5332 12.9092 13.3488 13.2374 13.0206C13.5656 12.6925 13.75 12.2473 13.75 11.7832C13.75 11.3191 13.5656 10.874 13.2374 10.5458C12.9092 10.2176 12.4641 10.0332 12 10.0332Z" fill="white"/>
</svg>
