<svg width="48" height="48" viewBox="0 0 48 48" fill="none" xmlns="http://www.w3.org/2000/svg">
<rect width="48" height="48" fill="#38424A"/>
<g clip-path="url(#clip0_669_8170)">
<path d="M35.998 34.5843C37.9791 32.3388 39.2902 29.5824 39.7824 26.6286C40.2745 23.6748 39.9278 20.6422 38.7818 17.8757C37.6358 15.1092 35.7364 12.7198 33.2996 10.9793C30.8629 9.23883 27.9867 8.21707 24.998 8.03027V23.5863L35.998 34.5843ZM34.582 36.0003L24.998 26.4123V39.9683C28.5462 39.75 31.9196 38.3519 34.582 35.9963V36.0003ZM22.998 39.9703V26.4143L13.414 36.0003C16.0766 38.3552 19.45 39.7526 22.998 39.9703ZM11.998 34.5843C10.0169 32.3388 8.70577 29.5824 8.21365 26.6286C7.72153 23.6748 8.06819 20.6422 9.21422 17.8757C10.3602 15.1092 12.2596 12.7198 14.6964 10.9793C17.1331 9.23883 20.0093 8.21707 22.998 8.03027V23.5863L11.998 34.5843Z" fill="white"/>
</g>
<defs>
<clipPath id="clip0_669_8170">
<rect width="32" height="32" fill="white" transform="translate(8 8)"/>
</clipPath>
</defs>
</svg>
