<svg width="48" height="48" viewBox="0 0 48 48" fill="none" xmlns="http://www.w3.org/2000/svg">
<rect width="48" height="48" fill="#990096"/>
<path d="M23.9974 37.3337C31.3614 37.3337 37.3307 31.3643 37.3307 24.0003C37.3307 16.6363 31.3614 10.667 23.9974 10.667C16.6334 10.667 10.6641 16.637 10.6641 24.0003C10.6641 31.3637 16.6334 37.3337 23.9974 37.3337Z" stroke="white" stroke-width="2.66667"/>
<path d="M11.9961 28.6582C13.7508 29.3613 15.0139 29.3613 15.7854 28.6582C16.9428 27.6022 15.9441 24.3995 17.5654 23.5162C19.1854 22.6329 21.6554 26.5482 23.9634 25.2602C26.2714 23.9715 23.7461 20.5355 25.3474 19.1429C26.9488 17.7502 29.0321 19.3209 29.3961 16.9915C29.7601 14.6622 27.6974 15.6729 27.3014 13.4715C27.0383 12.0049 27.0383 11.2338 27.3014 11.1582M27.3428 36.9009C26.0939 35.6222 25.6443 34.4338 25.9941 33.3355C26.5188 31.6875 27.3848 31.7849 27.7621 30.7662C28.1394 29.7475 27.0734 28.2962 29.4388 27.0562C31.0161 26.2295 33.1848 27.1875 35.9448 29.9302" stroke="white" stroke-width="2.66667" stroke-linecap="round"/>
</svg>
