<svg width="48" height="48" viewBox="0 0 48 48" fill="none" xmlns="http://www.w3.org/2000/svg">
<rect width="48" height="48" fill="#00A758"/>
<path d="M24.3815 36.9518C21.2926 36.174 18.7424 34.4016 16.7308 31.6345C14.7193 28.8674 13.714 25.7954 13.7148 22.4185V14.2852L24.3815 10.2852L35.0482 14.2852V22.4185C35.0482 25.7963 34.0428 28.8687 32.0322 31.6358C30.0215 34.4029 27.4713 36.1749 24.3815 36.9518Z" fill="white"/>
<path fill-rule="evenodd" clip-rule="evenodd" d="M23.6602 20.3258C23.4653 20.3258 23.2784 20.4032 23.1406 20.541C23.0029 20.6788 22.9255 20.8657 22.9255 21.0605V21.6556H25.6732V21.0605C25.6732 20.8657 25.5958 20.6788 25.458 20.541C25.3202 20.4032 25.1334 20.3258 24.9385 20.3258H23.6602ZM21.4561 21.0605V21.6556H21.1842C20.7945 21.6556 20.4208 21.8104 20.1452 22.086C19.8697 22.3616 19.7148 22.7353 19.7148 23.125V27.6728C19.7148 28.0625 19.8697 28.4362 20.1452 28.7118C20.4208 28.9874 20.7945 29.1422 21.1842 29.1422H27.4115C27.8012 29.1422 28.1749 28.9874 28.4505 28.7118C28.7261 28.4362 28.8809 28.0625 28.8809 27.6728V23.125C28.8809 22.7353 28.7261 22.3616 28.4505 22.086C28.1749 21.8104 27.8012 21.6556 27.4115 21.6556H27.1441V21.0605C27.1441 20.476 26.9119 19.9154 26.4985 19.502C26.0852 19.0887 25.5245 18.8564 24.94 18.8564H23.6616C23.0771 18.8564 22.5164 19.0887 22.1031 19.502C21.6898 19.9154 21.4561 20.476 21.4561 21.0605Z" fill="#00A758"/>
</svg>
