<svg width="48" height="48" viewBox="0 0 48 48" fill="none" xmlns="http://www.w3.org/2000/svg">
<rect width="48" height="48" fill="#DA0001"/>
<path d="M23.9974 17.3333V12H10.6641V36H37.3307V17.3333H23.9974ZM15.9974 33.3333H13.3307V30.6667H15.9974V33.3333ZM15.9974 28H13.3307V25.3333H15.9974V28ZM15.9974 22.6667H13.3307V20H15.9974V22.6667ZM15.9974 17.3333H13.3307V14.6667H15.9974V17.3333ZM21.3307 33.3333H18.6641V30.6667H21.3307V33.3333ZM21.3307 28H18.6641V25.3333H21.3307V28ZM21.3307 22.6667H18.6641V20H21.3307V22.6667ZM21.3307 17.3333H18.6641V14.6667H21.3307V17.3333ZM34.6641 33.3333H23.9974V30.6667H26.6641V28H23.9974V25.3333H26.6641V22.6667H23.9974V20H34.6641V33.3333ZM31.9974 22.6667H29.3307V25.3333H31.9974V22.6667ZM31.9974 28H29.3307V30.6667H31.9974V28Z" fill="white"/>
</svg>
