<svg width="32" height="32" viewBox="0 0 32 32" fill="none" xmlns="http://www.w3.org/2000/svg">
<path d="M5.29818 27.9996V23.9996H9.43151L6.03151 12.8663C5.43151 12.5329 4.93729 12.0441 4.54884 11.3996C4.1604 10.7552 3.96573 10.0663 3.96484 9.33295C3.96484 8.22184 4.35373 7.27739 5.13151 6.49961C5.90929 5.72184 6.85373 5.33295 7.96484 5.33295C8.83151 5.33295 9.60395 5.58317 10.2822 6.08361C10.9604 6.58406 11.4324 7.22273 11.6982 7.99961H15.9648V6.66628C15.9648 6.2885 16.0928 5.97206 16.3488 5.71695C16.6048 5.46184 16.9213 5.33384 17.2982 5.33295C17.4982 5.33295 17.6928 5.37739 17.8822 5.46628C18.0715 5.55517 18.2324 5.6885 18.3648 5.86628L20.6315 3.73295C20.8315 3.53295 21.0706 3.40495 21.3488 3.34895C21.6271 3.29295 21.8991 3.33206 22.1648 3.46628L27.3648 5.86628C27.6315 5.99961 27.8151 6.19428 27.9155 6.45028C28.016 6.70628 28.0102 6.95606 27.8982 7.19961C27.7648 7.46628 27.5706 7.63873 27.3155 7.71695C27.0604 7.79517 26.8102 7.77828 26.5648 7.66628L21.7648 5.46628L18.6315 8.39961V10.2663L21.7648 13.1329L26.5648 10.9329C26.8093 10.8218 27.0648 10.8107 27.3315 10.8996C27.5982 10.9885 27.7871 11.1552 27.8982 11.3996C28.0315 11.6663 28.0426 11.9218 27.9315 12.1663C27.8204 12.4107 27.6315 12.5996 27.3648 12.7329L22.1648 15.1996C21.8982 15.3329 21.6262 15.3716 21.3488 15.3156C21.0715 15.2596 20.8324 15.1321 20.6315 14.9329L18.3648 12.7996C18.2315 12.9329 18.0706 13.0552 17.8822 13.1663C17.6937 13.2774 17.4991 13.3329 17.2982 13.3329C16.9204 13.3329 16.604 13.2054 16.3488 12.9503C16.0937 12.6952 15.9657 12.3783 15.9648 11.9996V10.6663H11.6982C11.6315 10.8441 11.5595 11.0107 11.4822 11.1663C11.4048 11.3218 11.2991 11.4885 11.1648 11.6663L17.8315 23.9996H22.6315V27.9996H5.29818ZM7.96484 10.6663C8.34262 10.6663 8.65951 10.5383 8.91551 10.2823C9.17151 10.0263 9.29907 9.70984 9.29818 9.33295C9.29729 8.95606 9.16973 8.63961 8.91551 8.38361C8.66129 8.12761 8.3444 7.99961 7.96484 7.99961C7.58529 7.99961 7.26884 8.12761 7.01551 8.38361C6.76218 8.63961 6.63418 8.95606 6.63151 9.33295C6.62884 9.70984 6.75684 10.0267 7.01551 10.2836C7.27418 10.5405 7.59062 10.6681 7.96484 10.6663Z" fill="white"/>
</svg>
