<svg width="48" height="48" viewBox="0 0 48 48" fill="none" xmlns="http://www.w3.org/2000/svg">
<path d="M4 44.0008V40.0008C4 40.0008 14 36.0008 24 36.0008C34 36.0008 44 40.0008 44 40.0008V44.0008H4ZM22.6 18.2008C20.2 10.4008 8 12.2008 8 12.2008C8 12.2008 8.4 27.8008 19.8 25.4008C19 19.6008 16 18.0008 16 18.0008C21.6 18.0008 22 24.8008 22 24.8008V34.0008H26V25.6008C26 25.6008 26 17.8008 32 15.8008C32 15.8008 28 21.8008 28 25.8008C42 27.2008 42 8.00084 42 8.00084C42 8.00084 24.2 6.00084 22.6 18.2008Z" fill="#DA0001"/>
</svg>
