<svg width="48" height="48" viewBox="0 0 48 48" fill="none" xmlns="http://www.w3.org/2000/svg">
<path d="M16.5 6C16.5 5.60218 16.342 5.22064 16.0607 4.93934C15.7794 4.65804 15.3978 4.5 15 4.5C14.6022 4.5 14.2206 4.65804 13.9393 4.93934C13.658 5.22064 13.5 5.60218 13.5 6V6.602L13.43 6.608C12.01 6.716 10.812 6.946 9.718 7.472C7.94901 8.31377 6.49102 9.69266 5.552 11.412C4.978 12.476 4.732 13.638 4.614 14.998C4.5 16.322 4.5 17.962 4.5 20.018V29.98C4.5 32.038 4.5 33.68 4.614 35.002C4.734 36.362 4.978 37.524 5.552 38.586C6.49069 40.3061 7.94872 41.6857 9.718 42.528C10.812 43.054 12.01 43.284 13.43 43.392C14.822 43.5 16.55 43.5 18.738 43.5H29.262C31.45 43.5 33.178 43.5 34.57 43.392C35.99 43.282 37.188 43.054 38.282 42.528C40.051 41.6862 41.509 40.3073 42.448 38.588C43.022 37.524 43.268 36.362 43.386 35.002C43.5 33.678 43.5 32.038 43.5 29.982V20.02C43.5 17.962 43.5 16.32 43.386 14.998C43.266 13.638 43.022 12.476 42.448 11.414C41.5093 9.69392 40.0513 8.31429 38.282 7.472C37.188 6.946 35.99 6.716 34.57 6.608L34.5 6.6V6C34.5 5.60218 34.342 5.22064 34.0607 4.93934C33.7794 4.65804 33.3978 4.5 33 4.5C32.6022 4.5 32.2206 4.65804 31.9393 4.93934C31.658 5.22064 31.5 5.60218 31.5 6V6.506C30.8133 6.50067 30.0673 6.49867 29.262 6.5H18.74C17.9347 6.5 17.1887 6.502 16.502 6.506L16.5 6ZM11.02 10.176C11.608 9.892 12.346 9.712 13.5 9.612V10C13.5 10.3978 13.658 10.7794 13.9393 11.0607C14.2206 11.342 14.6022 11.5 15 11.5C15.3978 11.5 15.7794 11.342 16.0607 11.0607C16.342 10.7794 16.5 10.3978 16.5 10V9.506C17.2667 9.50108 18.0333 9.49908 18.8 9.5H29.2C30.052 9.5 30.8187 9.502 31.5 9.506V10C31.5 10.3978 31.658 10.7794 31.9393 11.0607C32.2206 11.342 32.6022 11.5 33 11.5C33.3978 11.5 33.7794 11.342 34.0607 11.0607C34.342 10.7794 34.5 10.3978 34.5 10V9.612C35.654 9.712 36.392 9.892 36.98 10.176C38.1792 10.7429 39.1689 11.6737 39.808 12.836C40.036 13.26 40.2 13.768 40.308 14.5H7.692C7.802 13.768 7.966 13.26 8.194 12.838C8.83229 11.6753 9.82126 10.7437 11.02 10.176ZM28.362 23.784C28.6845 24.0169 28.9012 24.3683 28.9646 24.761C29.028 25.1537 28.9328 25.5555 28.7 25.878L24.5 31.692C24.3284 31.9293 24.1056 32.1248 23.848 32.2641C23.5904 32.4034 23.3047 32.4828 23.0122 32.4965C22.7197 32.5101 22.4279 32.4576 22.1585 32.3429C21.889 32.2282 21.6489 32.0543 21.456 31.834L19.388 29.472C19.2583 29.3237 19.159 29.1514 19.0958 28.9647C19.0327 28.7781 19.007 28.5809 19.0201 28.3843C19.0331 28.1877 19.0848 27.9956 19.1722 27.819C19.2595 27.6424 19.3807 27.4847 19.529 27.355C19.6773 27.2253 19.8496 27.126 20.0363 27.0628C20.2229 26.9997 20.4201 26.974 20.6167 26.9871C20.8133 27.0001 21.0054 27.0518 21.182 27.1392C21.3586 27.2265 21.5163 27.3477 21.646 27.496L22.842 28.864L26.268 24.122C26.5009 23.7995 26.8523 23.5828 27.245 23.5194C27.6377 23.456 28.0395 23.5512 28.362 23.784Z" fill="#0267BF"/>
</svg>
