<svg width="28" height="24" viewBox="0 0 28 24" fill="none" xmlns="http://www.w3.org/2000/svg">
<path d="M16.1538 24V15.6923C16.1538 11.5692 17.0769 8.09231 18.9231 5.26154C20.8308 2.36923 23.8154 0.615384 27.8769 0V4.8C25.4769 5.04615 23.8154 5.90769 22.8923 7.38461C22.0308 8.8 21.6 10.9231 21.6 13.7538L17.9077 13.2H27.7846V24H16.1538ZM0 24V15.6923C0 11.5692 0.923077 8.09231 2.76923 5.26154C4.67692 2.36923 7.66154 0.615384 11.7231 0V4.8C9.32308 5.04615 7.66154 5.90769 6.73846 7.38461C5.87692 8.8 5.44616 10.9231 5.44616 13.7538L1.75385 13.2H11.6308V24H0Z" fill="#00A758"/>
</svg>
