<svg width="48" height="48" viewBox="0 0 48 48" fill="none" xmlns="http://www.w3.org/2000/svg">
<path d="M44 26.956V36C44 37.5913 43.3679 39.1174 42.2426 40.2426C41.1174 41.3679 39.5913 42 38 42H10C8.4087 42 6.88258 41.3679 5.75736 40.2426C4.63214 39.1174 4 37.5913 4 36V26.956L5.106 27.51C10.9679 30.4624 17.4401 32 24.0035 31.9993C30.5669 31.9986 37.0388 30.4597 42.9 27.506L44 26.956ZM28 4C29.5913 4 31.1174 4.63214 32.2426 5.75736C33.3679 6.88258 34 8.4087 34 10V12H38C39.5913 12 41.1174 12.6321 42.2426 13.7574C43.3679 14.8826 44 16.4087 44 18V22.484L41.106 23.932C35.9281 26.5422 30.2214 27.9328 24.4231 27.9973C18.6249 28.0618 12.8887 26.7984 7.654 24.304L6.36 23.664L4 22.484V18C4 16.4087 4.63214 14.8826 5.75736 13.7574C6.88258 12.6321 8.4087 12 10 12H14V10C14 8.4087 14.6321 6.88258 15.7574 5.75736C16.8826 4.63214 18.4087 4 20 4H28ZM24 20C23.4696 20 22.9609 20.2107 22.5858 20.5858C22.2107 20.9609 22 21.4696 22 22C21.9987 22.2626 22.0491 22.523 22.1484 22.7661C22.2477 23.0093 22.3939 23.2305 22.5787 23.4171C22.7635 23.6038 22.9832 23.7522 23.2254 23.8539C23.4675 23.9557 23.7274 24.0087 23.99 24.01C24.2526 24.0113 24.513 23.9609 24.7561 23.8616C24.9993 23.7623 25.2205 23.6161 25.4071 23.4313C25.5938 23.2465 25.7422 23.0268 25.8439 22.7846C25.9457 22.5425 25.9987 22.2826 26 22.02C26 20.896 25.104 20 24 20ZM28 8H20C19.4696 8 18.9609 8.21071 18.5858 8.58579C18.2107 8.96086 18 9.46957 18 10V12H30V10C30 9.46957 29.7893 8.96086 29.4142 8.58579C29.0391 8.21071 28.5304 8 28 8Z" fill="#990096"/>
</svg>
