<svg width="24" height="24" viewBox="0 0 24 24" fill="none" xmlns="http://www.w3.org/2000/svg">
<path fill-rule="evenodd" clip-rule="evenodd" d="M22 6.04059C21.2535 6.38201 20.4588 6.60631 19.644 6.70559C20.5074 6.16955 21.1481 5.3396 21.448 4.36859C20.6454 4.85946 19.7631 5.20602 18.841 5.39259C18.4628 4.97316 18.0009 4.63772 17.485 4.40794C16.9691 4.17816 16.4107 4.05915 15.846 4.05859C13.582 4.05859 11.745 5.95159 11.745 8.28559C11.745 8.61659 11.78 8.93859 11.85 9.24759C8.44 9.07159 5.417 7.39059 3.392 4.83059C3.02669 5.47988 2.8355 6.2126 2.837 6.95759C2.83336 7.64798 2.99756 8.32891 3.31548 8.94175C3.6334 9.55459 4.0955 10.081 4.662 10.4756C4.00866 10.454 3.37049 10.273 2.803 9.94859V10.0006C2.803 12.0486 4.218 13.7576 6.096 14.1446C5.49254 14.3155 4.85716 14.3408 4.242 14.2186C4.765 15.8976 6.279 17.1196 8.075 17.1526C7.23221 17.8381 6.25982 18.3465 5.216 18.6476C4.17219 18.9486 3.07838 19.036 2 18.9046C3.86464 20.1415 6.05239 20.8017 8.29 20.8026C15.838 20.8026 19.964 14.3626 19.964 8.77659C19.964 8.59259 19.961 8.40859 19.954 8.22859C20.7609 7.627 21.4538 6.88601 22 6.04059Z" fill="white" stroke="white"/>
</svg>
