<svg width="32" height="36" viewBox="0 0 32 36" fill="none" xmlns="http://www.w3.org/2000/svg">
<path d="M15.88 0C13.778 0.0278995 11.7717 0.883499 10.2965 2.38117C8.82131 3.87885 7.99613 5.8978 8 8C7.88 11.28 7.62 14.94 6.06 17.18C11.42 20.44 16 20 16 20C16 20 20.58 20.44 25.94 17.18C24.24 14.44 23.88 11.08 24 8C24 3.58 20.42 0 16 0H15.88ZM9.72 20.64C4 21.86 0 24.7 0 28V36H16L10 28H5M16 36L19.56 21.62C19.56 21.62 18 22 16 22C14 22 12.44 21.62 12.44 21.62M16 36H32V28C32 24.7 28 21.86 22.28 20.64L27 28H22L16 36Z" fill="#0267BF"/>
</svg>
